HIERARCHY
ROOT Hips
{
	OFFSET 0.000000 89.005402 0.000000
	CHANNELS 6 Xposition Yposition Zposition Xrotation Yrotation Zrotation
	JOINT Spine
	{
		OFFSET 0.116900 10.681000 0.373400
		CHANNELS 3 Xrotation Yrotation Zrotation
		JOINT Spine1
		{
			OFFSET 0.000000 13.840401 0.053500
			CHANNELS 3 Xrotation Yrotation Zrotation
			JOINT Spine2
			{
				OFFSET 0.000000 14.712700 -0.366200
				CHANNELS 3 Xrotation Yrotation Zrotation
				JOINT Neck
				{
					OFFSET 0.000000 35.415497 -3.314200
					CHANNELS 3 Xrotation Yrotation Zrotation
					JOINT Head
					{
						OFFSET 0.000000 16.899200 1.218300
						CHANNELS 3 Xrotation Yrotation Zrotation
						JOINT HeadTop_End
						{
							OFFSET 0.000000 22.206207 2.192500
							CHANNELS 3 Xrotation Yrotation Zrotation
							End Site
							{
								OFFSET 0.000000 22.314178 0.000000
							}
						}
					}
				}
				JOINT LeftShoulder
				{
					OFFSET 12.896400 26.716293 -4.548400
					CHANNELS 3 Xrotation Yrotation Zrotation
					JOINT LeftArm
					{
						OFFSET 19.027000 -4.857010 -1.718400
						CHANNELS 3 Xrotation Yrotation Zrotation
						JOINT LeftForeArm
						{
							OFFSET 24.179897 0.000000 0.000000
							CHANNELS 3 Xrotation Yrotation Zrotation
							JOINT LeftHand
							{
								OFFSET 27.156403 0.000000 0.000000
								CHANNELS 3 Xrotation Yrotation Zrotation
								JOINT LeftHandIndex1
								{
									OFFSET 16.441200 0.000000 0.000000
									CHANNELS 3 Xrotation Yrotation Zrotation
									JOINT LeftHandIndex2
									{
										OFFSET 4.821899 0.000000 0.000000
										CHANNELS 3 Xrotation Yrotation Zrotation
										JOINT LeftHandIndex3
										{
											OFFSET 6.386497 0.000000 0.000000
											CHANNELS 3 Xrotation Yrotation Zrotation
											JOINT LeftHandIndex4
											{
												OFFSET 5.188988 0.000000 0.000000
												CHANNELS 3 Xrotation Yrotation Zrotation
												End Site
												{
													OFFSET -0.178703 5.185913 0.000177
												}
											}
										}
									}
								}
								JOINT LeftHandThumb1
								{
									OFFSET 6.534897 -5.032593 5.900300
									CHANNELS 3 Xrotation Yrotation Zrotation
									JOINT LeftHandThumb2
									{
										OFFSET 3.818176 -2.204422 2.204423
										CHANNELS 3 Xrotation Yrotation Zrotation
										JOINT LeftHandThumb3
										{
											OFFSET 3.252098 -1.877594 1.877601
											CHANNELS 3 Xrotation Yrotation Zrotation
											JOINT LeftHandThumb4
											{
												OFFSET 5.251778 -3.032120 3.032117
												CHANNELS 3 Xrotation Yrotation Zrotation
												End Site
												{
													OFFSET 0.000023 6.780014 0.000000
												}
											}
										}
									}
								}
							}
						}
					}
				}
				JOINT RightShoulder
				{
					OFFSET -12.896300 26.716293 -4.548400
					CHANNELS 3 Xrotation Yrotation Zrotation
					JOINT RightArm
					{
						OFFSET -19.027000 -4.857010 -1.718400
						CHANNELS 3 Xrotation Yrotation Zrotation
						JOINT RightForeArm
						{
							OFFSET -24.179897 0.000000 0.000000
							CHANNELS 3 Xrotation Yrotation Zrotation
							JOINT RightHand
							{
								OFFSET -27.156403 0.000000 0.000000
								CHANNELS 3 Xrotation Yrotation Zrotation
								JOINT RightHandThumb1
								{
									OFFSET -6.591202 -4.852203 5.988100
									CHANNELS 3 Xrotation Yrotation Zrotation
									JOINT RightHandThumb2
									{
										OFFSET -3.818176 -2.204422 2.204423
										CHANNELS 3 Xrotation Yrotation Zrotation
										JOINT RightHandThumb3
										{
											OFFSET -3.252098 -1.877594 1.877601
											CHANNELS 3 Xrotation Yrotation Zrotation
											JOINT RightHandThumb4
											{
												OFFSET -5.251778 -3.032120 3.032117
												CHANNELS 3 Xrotation Yrotation Zrotation
												End Site
												{
													OFFSET -0.000023 6.780014 0.000000
												}
											}
										}
									}
								}
								JOINT RightHandIndex1
								{
									OFFSET -16.029404 0.000000 0.000000
									CHANNELS 3 Xrotation Yrotation Zrotation
									JOINT RightHandIndex2
									{
										OFFSET -5.213303 0.000000 0.000000
										CHANNELS 3 Xrotation Yrotation Zrotation
										JOINT RightHandIndex3
										{
											OFFSET -6.386528 0.000000 0.000000
											CHANNELS 3 Xrotation Yrotation Zrotation
											JOINT RightHandIndex4
											{
												OFFSET -5.189026 0.000000 0.000000
												CHANNELS 3 Xrotation Yrotation Zrotation
												End Site
												{
													OFFSET 0.236702 5.183624 0.001972
												}
											}
										}
									}
								}
							}
						}
					}
				}
			}
		}
	}
	JOINT LeftUpLeg
	{
		OFFSET 14.073000 -7.904099 -1.463000
		CHANNELS 3 Xrotation Yrotation Zrotation
		JOINT LeftLeg
		{
			OFFSET -0.109806 -34.073280 4.093200
			CHANNELS 3 Xrotation Yrotation Zrotation
			JOINT LeftFoot
			{
				OFFSET 0.109806 -29.899420 -6.319000
				CHANNELS 3 Xrotation Yrotation Zrotation
				JOINT LeftToeBase
				{
					OFFSET 1.551100 -14.988700 20.535801
					CHANNELS 3 Xrotation Yrotation Zrotation
					JOINT LeftToe_End
					{
						OFFSET 0.221200 0.570800 13.248301
						CHANNELS 3 Xrotation Yrotation Zrotation
						End Site
						{
							OFFSET 0.000000 13.262435 0.000000
						}
					}
				}
			}
		}
	}
	JOINT RightUpLeg
	{
		OFFSET -13.839300 -7.904099 -1.463000
		CHANNELS 3 Xrotation Yrotation Zrotation
		JOINT RightLeg
		{
			OFFSET 0.109694 -34.073219 4.093300
			CHANNELS 3 Xrotation Yrotation Zrotation
			JOINT RightFoot
			{
				OFFSET -0.109694 -29.899384 -6.319200
				CHANNELS 3 Xrotation Yrotation Zrotation
				JOINT RightToeBase
				{
					OFFSET -1.551100 -14.988700 20.535801
					CHANNELS 3 Xrotation Yrotation Zrotation
					JOINT RightToe_End
					{
						OFFSET -0.221200 0.570900 13.248299
						CHANNELS 3 Xrotation Yrotation Zrotation
						End Site
						{
							OFFSET 0.000000 13.262440 0.000000
						}
					}
				}
			}
		}
	}
}
MOTION
Frames: 9
Frame Time: 0.033333
-0.773237 74.294662 0.629730 8.642638 -28.667322 2.704058 1.602442 -0.629666 -0.705062 3.079963 -0.457013 0.667128 3.075504 -0.476697 0.676826 8.464422 3.681402 -6.337125 -4.262345 15.041938 -6.719933 -0.000000 0.000001 -0.000000 0.935914 -15.507994 -12.426316 -53.774230 2.234277 -25.730325 0.000012 -126.680365 0.000010 -72.499337 -2.010492 -1.523069 8.081704 6.776186 -100.071082 7.843397 6.813917 -98.057310 2.354335 5.187918 -48.794834 -0.000006 -0.000001 -0.000002 3.178880 24.017909 -16.655341 -63.971641 59.877652 85.864603 -16.188602 36.284041 21.726651 0.000000 0.000000 -0.000000 -1.441917 35.819780 14.738812 -15.316132 16.010103 35.079838 -0.000039 112.689522 0.000039 10.863054 2.403143 -15.208313 3.673779 -18.291117 16.337450 32.061000 -73.218228 -3.100495 -3.434652 -33.086908 -18.236504 -0.000002 -0.000000 -0.000000 8.518546 -6.769305 103.092874 5.259513 -6.740868 75.900593 1.462779 -4.271246 37.795292 0.000000 -0.000002 0.000003 -46.798807 5.431378 26.740964 55.023417 3.588950 -2.837375 -12.797824 1.519738 -13.916310 -0.000040 -0.000002 0.000009 -0.000000 0.000000 -0.000000 -27.027625 -8.333879 -21.673449 51.301845 -4.144011 -1.593918 -26.187574 -8.337727 22.778747 -0.086161 -0.000003 0.000004 -0.000000 -0.000000 0.000000 
-0.750463 74.034134 0.503829 8.975093 -27.409875 2.506301 1.664970 -0.897169 -0.585471 3.222024 -0.953834 0.847230 3.218060 -0.975404 0.850366 8.485045 3.539197 -6.182852 -4.645525 14.851910 -7.202511 -0.000000 0.000001 0.000000 0.907922 -15.840155 -12.446112 -52.893251 1.895053 -26.448212 0.000033 -125.357016 0.000036 -71.852245 -1.979236 -1.557840 8.081705 6.776188 -100.071082 7.843393 6.813911 -98.057310 2.354337 5.187925 -48.794834 0.000001 0.000003 -0.000001 3.178880 24.017909 -16.655341 -63.971641 59.877652 85.864603 -16.188610 36.284041 21.726641 -0.000002 0.000001 -0.000002 -1.247204 34.241750 14.460153 -13.947519 17.552980 34.776526 -0.000005 112.266768 0.000001 7.968751 3.497876 -16.060954 3.673777 -18.291120 16.337447 32.061004 -73.218221 -3.100489 -3.434656 -33.086915 -18.236506 -0.000000 0.000000 -0.000000 8.518548 -6.769308 103.092874 5.259511 -6.740857 75.900593 1.462781 -4.271250 37.795292 0.000000 -0.000004 0.000001 -48.203042 4.715426 26.270484 55.461963 3.074421 -2.364181 -12.485480 1.315234 -13.753822 -0.000040 -0.000002 0.000009 0.000000 0.000000 -0.000000 -26.785326 -7.850806 -21.158114 51.799748 -6.035470 -1.745580 -26.536197 -8.309024 23.947444 -0.003438 0.000019 0.000000 -0.000000 -0.000003 -0.000000 
-0.730469 73.744446 0.525416 9.169783 -24.325948 2.107296 1.724450 -1.122477 -0.303679 3.320745 -1.390053 1.064235 3.319804 -1.409436 1.059676 8.535340 3.254727 -6.047390 -5.130360 13.686914 -6.900562 -0.000000 -0.000000 -0.000000 0.899211 -16.531257 -12.488024 -51.834719 1.162751 -27.386593 -0.000012 -124.766465 -0.000019 -71.045469 -1.934535 -1.402671 8.081700 6.776185 -100.071082 7.843395 6.813911 -98.057310 2.354334 5.187921 -48.794834 -0.000000 -0.000000 -0.000002 3.178878 24.017908 -16.655345 -63.971634 59.877652 85.864603 -16.188602 36.284041 21.726647 -0.000002 -0.000000 -0.000001 -0.863334 32.048620 14.103781 -13.081361 18.367803 35.173886 0.000001 111.987194 0.000002 4.500882 4.863049 -16.202578 3.673777 -18.291130 16.337450 32.061000 -73.218228 -3.100484 -3.434652 -33.086915 -18.236503 0.000001 0.000000 0.000001 8.518544 -6.769312 103.092874 5.259514 -6.740863 75.900593 1.462785 -4.271252 37.795292 0.000002 0.000001 -0.000000 -50.226387 3.853870 24.781603 55.635316 1.204731 -1.682050 -11.780960 1.190785 -12.780187 -0.000040 -0.000002 0.000009 -0.000000 0.000000 -0.000000 -25.291313 -7.678364 -20.390444 51.984986 -7.259008 -2.074516 -27.347222 -10.315930 25.030333 -0.441907 0.000014 0.000009 -0.000000 -0.000002 -0.000000 
-0.767526 73.416656 0.855997 9.138161 -17.227194 1.332883 1.713813 -1.243641 0.338199 3.274486 -1.595305 1.360643 3.276034 -1.603487 1.352445 8.796461 2.934518 -5.971180 -5.930499 9.829571 -4.626278 0.000000 0.000001 -0.000000 0.909717 -17.846847 -12.573191 -50.458152 -0.172083 -28.722981 0.000013 -125.965463 0.000014 -70.349104 -2.003214 -1.286628 8.081703 6.776187 -100.071082 7.843397 6.813908 -98.057310 2.354332 5.187924 -48.794834 -0.000000 -0.000001 -0.000001 3.178880 24.017915 -16.655345 -63.971641 59.877652 85.864610 -16.188600 36.284038 21.726644 -0.000000 -0.000001 -0.000002 -0.235080 28.477931 13.600641 -13.149851 15.196341 37.020056 0.000077 113.813204 -0.000079 2.312075 5.348497 -14.675462 3.673773 -18.291122 16.337450 32.061007 -73.218228 -3.100492 -3.434652 -33.086908 -18.236501 0.000000 0.000000 0.000000 8.518546 -6.769307 103.092874 5.259510 -6.740865 75.900593 1.462783 -4.271246 37.795292 -0.000001 -0.000001 -0.000000 -53.421884 3.079443 21.185922 55.076579 -3.602139 -0.777880 -9.938338 0.895504 -10.114766 -0.000040 -0.000002 0.000009 0.000000 -0.000000 0.000000 -20.878915 -8.321698 -18.456561 51.042215 -7.420969 -3.324385 -29.141630 -16.329206 25.919076 -2.492073 -0.000019 0.000010 -0.000000 -0.000001 -0.000000 
-0.889390 73.078178 1.429200 8.981219 -6.174836 0.309000 1.556170 -1.053781 1.336449 3.021434 -1.343482 1.780352 3.026450 -1.335026 1.774782 9.024624 1.910641 -6.238940 -6.890712 3.194785 -0.324540 -0.000000 -0.000000 0.000000 0.964676 -19.509884 -12.690760 -49.761777 -1.783099 -29.847018 0.000015 -128.753055 0.000014 -70.651928 -2.221642 -1.235375 8.081696 6.776182 -100.071082 7.843397 6.813913 -98.057310 2.354337 5.187924 -48.794837 0.000000 -0.000001 0.000000 3.178878 24.017908 -16.655345 -63.971634 59.877659 85.864603 -16.188607 36.284041 21.726644 -0.000001 -0.000001 0.000003 0.270205 24.515791 13.144194 -13.952109 8.114909 38.068865 0.000045 116.692471 -0.000019 0.582621 5.110380 -12.544196 3.673779 -18.291119 16.337452 32.061007 -73.218221 -3.100488 -3.434653 -33.086905 -18.236503 0.000001 0.000001 0.000000 8.518547 -6.769307 103.092874 5.259512 -6.740864 75.900593 1.462783 -4.271255 37.795292 0.000000 -0.000000 -0.000001 -57.061221 3.150965 15.671355 53.488543 -9.674501 -0.123382 -6.245712 -0.874778 -6.399256 -0.000040 -0.000002 0.000009 -0.000000 0.000000 -0.000000 -13.646867 -9.729925 -14.638598 48.594323 -7.931240 -6.037608 -31.410647 -23.632627 26.959822 -7.421591 0.000021 0.000012 -0.000001 0.000002 0.000000 
-0.797319 72.742065 2.063071 8.852214 5.146411 -0.758159 1.336018 -0.512551 2.379679 2.694292 -0.633892 2.272592 2.699153 -0.611844 2.270971 9.071167 0.809292 -6.840712 -7.490697 -4.426405 4.042814 -0.000000 0.000000 -0.000000 0.991420 -20.791816 -12.790183 -50.310794 -2.856129 -29.948501 0.000049 -131.083652 0.000073 -72.101287 -2.437107 -1.103877 8.081697 6.776188 -100.071082 7.843396 6.813910 -98.057310 2.354334 5.187922 -48.794837 -0.000001 0.000001 0.000000 3.178881 24.017908 -16.655350 -63.971641 59.877652 85.864610 -16.188604 36.284045 21.726646 -0.000001 0.000002 -0.000003 0.151608 22.548611 12.958223 -18.383123 1.502769 34.826486 0.000032 116.364061 -0.000045 -0.313300 4.497180 -9.745807 3.673779 -18.291124 16.337449 32.061004 -73.218228 -3.100489 -3.434656 -33.086912 -18.236504 -0.000001 -0.000002 0.000000 8.518550 -6.769305 103.092874 5.259512 -6.740865 75.900593 1.462782 -4.271249 37.795296 0.000000 0.000003 -0.000003 -59.535542 3.752838 10.552728 51.544856 -9.580740 -0.247291 -1.935299 -8.256155 -3.432784 -0.000040 -0.000002 0.000009 -0.000000 -0.000000 -0.000000 -6.310689 -11.082546 -10.035771 46.089048 -8.738982 -6.818611 -36.783229 -28.097069 21.367852 -13.589406 0.000020 -0.000012 -0.000001 0.000001 0.000001 
-0.670481 72.365929 2.589134 8.702250 14.960968 -1.664466 1.126339 0.226451 3.228042 2.430306 0.462568 2.730500 2.428880 0.492081 2.728646 8.965323 -0.158289 -7.647995 -7.638158 -11.152679 7.224389 -0.000001 0.000001 0.000000 1.011036 -21.354569 -12.836039 -51.467354 -3.147688 -29.100093 0.000008 -132.379885 -0.000002 -74.334486 -2.570420 -0.941670 8.081704 6.776184 -100.071082 7.843397 6.813912 -98.057310 2.354334 5.187923 -48.794837 0.000002 0.000000 -0.000000 3.178881 24.017911 -16.655341 -63.971641 59.877652 85.864603 -16.188602 36.284041 21.726647 -0.000001 0.000001 -0.000000 -0.829359 23.505809 13.064899 -26.690071 -2.526896 26.316767 -0.000088 110.549603 0.000076 1.075633 3.196265 -6.323789 3.673776 -18.291122 16.337450 32.061010 -73.218228 -3.100492 -3.434653 -33.086905 -18.236503 0.000001 0.000001 0.000000 8.518545 -6.769305 103.092874 5.259509 -6.740862 75.900586 1.462781 -4.271253 37.795289 -0.000001 -0.000001 0.000001 -60.659634 4.060009 5.955844 49.942244 -9.286813 -0.924331 1.896234 -13.620509 -0.467498 -0.000040 -0.000002 0.000009 0.000000 0.000000 -0.000000 -2.851992 -11.641030 -7.219349 48.808843 -12.009493 -6.765141 -38.796058 -27.465365 19.578807 -19.063751 -0.000017 -0.000004 -0.000000 -0.000001 -0.000000 
-0.608061 71.942963 2.860755 8.403827 21.697501 -2.062581 0.983849 0.998109 3.688071 2.286898 1.777426 3.026975 2.273406 1.809610 3.019995 8.852560 -0.784524 -8.387078 -7.707316 -15.429828 8.539015 -0.000000 -0.000000 0.000000 1.034819 -20.990939 -12.805432 -52.186241 -2.659202 -27.994116 0.000003 -133.152024 0.000003 -76.860453 -2.604360 -0.867291 8.081703 6.776184 -100.071082 7.843393 6.813915 -98.057310 2.354331 5.187925 -48.794830 0.000002 -0.000001 0.000000 3.178879 24.017909 -16.655343 -63.971634 59.877652 85.864596 -16.188600 36.284034 21.726647 0.000000 0.000001 0.000001 -3.167920 27.406349 13.520009 -34.612407 -0.220285 15.815440 -0.000867 94.812656 0.000906 7.333753 1.756771 -3.348732 3.673778 -18.291122 16.337447 32.060997 -73.218228 -3.100491 -3.434654 -33.086912 -18.236504 0.000000 0.000000 -0.000000 8.518547 -6.769304 103.092867 5.259508 -6.740862 75.900586 1.462784 -4.271250 37.795299 -0.000000 0.000002 -0.000001 -60.969294 3.460430 2.306657 49.063892 -9.196121 -1.518484 4.403039 -16.179840 1.244069 -0.000040 -0.000002 0.000009 -0.000000 0.000000 0.000000 -1.774836 -11.367641 -8.112082 53.716139 -12.314611 -5.210000 -37.035092 -24.985501 24.279299 -23.138096 0.000001 0.000003 0.000001 -0.000000 0.000000 
-0.565869 71.681511 2.933673 7.893310 24.891791 -1.867765 0.928826 1.667487 3.837298 2.254625 3.075269 3.133494 2.227138 3.109340 3.118999 8.868207 -1.000181 -8.842680 -8.016262 -16.934535 8.270209 -0.000001 0.000002 -0.000001 1.024686 -19.963111 -12.724017 -51.592151 -1.804095 -27.550748 0.000042 -134.324139 0.000059 -78.683356 -2.595058 -0.948100 8.081701 6.776187 -100.071082 7.843392 6.813912 -98.057317 2.354333 5.187925 -48.794837 -0.000001 -0.000000 -0.000000 3.178881 24.017908 -16.655348 -63.971627 59.877652 85.864603 -16.188602 36.284034 21.726647 -0.000000 0.000000 0.000004 -2.977382 33.670760 6.965661 -40.259908 3.716589 11.749618 0.000106 68.834926 -0.000095 17.465665 0.894678 -1.487933 3.673778 -18.291124 16.337454 32.061010 -73.218228 -3.100488 -3.434653 -33.086912 -18.236503 -0.000001 -0.000000 0.000004 8.518547 -6.769309 103.092874 5.259509 -6.740863 75.900593 1.462781 -4.271249 37.795292 -0.000001 -0.000003 -0.000000 -60.746494 2.396630 -0.146191 48.633314 -9.245855 -1.540029 5.380058 -16.717947 1.341720 -0.000040 -0.000002 0.000009 0.000000 0.000000 0.000000 -1.845067 -10.936560 -11.032875 58.030885 -11.728359 -1.793178 -36.449158 -21.011334 26.180952 -26.670511 -0.000001 -0.000004 -0.000000 0.000002 0.000001 
